<?xml version="1.0" encoding="UTF-8"?>
<!DOCTYPE svg PUBLIC "-//W3C//DTD SVG 1.1//EN" "http://www.w3.org/Graphics/SVG/1.1/DTD/svg11.dtd">
<svg xmlns="http://www.w3.org/2000/svg" version="1.1" width="326px" height="326px" style="shape-rendering:geometricPrecision; text-rendering:geometricPrecision; image-rendering:optimizeQuality; fill-rule:evenodd; clip-rule:evenodd" xmlns:xlink="http://www.w3.org/1999/xlink">
<g><path style="opacity:0.978" fill="#0c6176" d="M 151.5,-0.5 C 158.833,-0.5 166.167,-0.5 173.5,-0.5C 238.748,6.70499 285.248,40.0383 313,99.5C 319.717,116.363 323.884,133.696 325.5,151.5C 325.5,158.833 325.5,166.167 325.5,173.5C 318.295,238.748 284.962,285.248 225.5,313C 208.637,319.717 191.304,323.884 173.5,325.5C 166.167,325.5 158.833,325.5 151.5,325.5C 86.2523,318.295 39.7523,284.962 12,225.5C 5.28297,208.637 1.1163,191.304 -0.5,173.5C -0.5,166.167 -0.5,158.833 -0.5,151.5C 6.70499,86.2523 40.0383,39.7523 99.5,12C 116.363,5.28297 133.696,1.1163 151.5,-0.5 Z M 148.5,50.5 C 185.639,46.711 217.472,57.711 244,83.5C 256.244,97.3212 264.244,113.321 268,131.5C 272.224,161.521 262.724,186.021 239.5,205C 213.772,219.773 186.772,222.44 158.5,213C 125.749,198.67 112.583,173.836 119,138.5C 128.496,112.668 146.996,99.8346 174.5,100C 200.421,104.421 215.421,119.587 219.5,145.5C 216.442,169.063 203.109,179.896 179.5,178C 173.46,175.894 167.627,173.394 162,170.5C 154.147,172.177 152.48,176.511 157,183.5C 170.104,197.392 185.938,201.558 204.5,196C 223.567,187.583 235.4,173.083 240,152.5C 241.953,144.16 241.953,135.827 240,127.5C 237.032,119.239 234.366,110.906 232,102.5C 223.871,95.0059 215.038,88.3393 205.5,82.5C 200.826,74.44 193.993,71.7734 185,74.5C 175.582,72.5055 166.082,71.0055 156.5,70C 148.553,67.9843 141.886,69.9843 136.5,76C 129.773,78.1973 123.439,81.1973 117.5,85C 105.714,85.1301 98.881,90.9634 97,102.5C 92.8395,107.486 89.1728,112.819 86,118.5C 74.1846,125.275 70.6846,135.108 75.5,148C 74.2433,156.529 74.2433,165.029 75.5,173.5C 71.5582,180.882 71.7249,188.216 76,195.5C 77.4186,198.296 79.5853,200.296 82.5,201.5C 84.8875,207.943 88.0541,213.943 92,219.5C 92.7692,235.222 100.936,244.055 116.5,246C 136.515,260.457 158.849,269.457 183.5,273C 141.341,279.726 105.841,267.56 77,236.5C 55.1704,206.5 47.8371,173.167 55,136.5C 66.5941,86.4009 97.7608,57.7343 148.5,50.5 Z M 147.5,73.5 C 150.32,73.2475 152.986,73.7475 155.5,75C 157.223,78.4079 156.223,80.7413 152.5,82C 149.007,83.0037 145.841,82.5037 143,80.5C 142.333,79.1667 142.333,77.8333 143,76.5C 144.652,75.6006 146.152,74.6006 147.5,73.5 Z M 189.5,77.5 C 195.172,76.883 198.339,79.2163 199,84.5C 193.793,87.2638 189.959,85.9305 187.5,80.5C 187.942,79.2613 188.609,78.2613 189.5,77.5 Z M 108.5,91.5 C 113.123,90.4082 114.956,92.0748 114,96.5C 112.053,100.557 108.886,102.057 104.5,101C 103.446,99.6124 103.28,98.1124 104,96.5C 105.366,94.6383 106.866,92.9717 108.5,91.5 Z M 221.5,100.5 C 227.551,101.039 229.885,104.206 228.5,110C 224.616,109.641 221.949,107.475 220.5,103.5C 221.127,102.583 221.461,101.583 221.5,100.5 Z M 83.5,127.5 C 87.074,126.908 89.074,128.408 89.5,132C 88.9859,136.536 86.6526,139.702 82.5,141.5C 80.3175,140.308 78.9842,138.475 78.5,136C 79.1856,132.505 80.8523,129.672 83.5,127.5 Z M 81.5,177.5 C 86.0614,177.56 88.5614,179.893 89,184.5C 90.2417,190.243 88.075,193.077 82.5,193C 77.7038,188.076 77.3704,182.91 81.5,177.5 Z M 101.5,220.5 C 110.028,220.023 115.028,224.023 116.5,232.5C 114.618,238.761 110.951,239.928 105.5,236C 99.7528,231.749 98.4195,226.583 101.5,220.5 Z"/></g>
</svg>
